<svg width="340" height="20" viewBox="0 0 340 20" fill="none" xmlns="http://www.w3.org/2000/svg">
<g clip-path="url(#clip0_1246_43)">
<path d="M4.9231 13.3187H15.033V17.7143H4.9231V13.3187Z" fill="#4318FF"/>
<path d="M15.3846 14.2418C15.3846 12.7962 14.815 11.4099 13.801 10.3877C12.7871 9.3655 11.4119 8.79126 9.978 8.79126C8.54407 8.79126 7.16891 9.3655 6.15497 10.3877C5.14104 11.4099 4.57141 12.7962 4.57141 14.2418H15.3846Z" fill="#4318FF"/>
<path fill-rule="evenodd" clip-rule="evenodd" d="M10 15.6044C13.0952 15.6044 15.6044 13.0952 15.6044 10C15.6044 6.90479 13.0952 4.3956 10 4.3956C6.90479 4.3956 4.3956 6.90479 4.3956 10C4.3956 13.0952 6.90479 15.6044 10 15.6044ZM10 20C15.5229 20 20 15.5229 20 10C20 4.47714 15.5229 0 10 0C4.47714 0 0 4.47714 0 10C0 15.5229 4.47714 20 10 20Z" fill="#4318FF"/>
</g>
<path d="M33.856 16V7.25H31.154V5.57H38.434V7.25H35.774V16H33.856ZM42.6759 16V5.57H46.5539C47.2632 5.57 47.8886 5.70067 48.4299 5.962C48.9806 6.214 49.4099 6.58733 49.7179 7.082C50.0259 7.56733 50.1799 8.16 50.1799 8.86C50.1799 9.57867 50.0072 10.19 49.6619 10.694C49.3259 11.198 48.8686 11.5713 48.2899 11.814L50.6839 16H48.5279L45.9659 11.422L47.1979 12.15H44.5799V16H42.6759ZM44.5799 10.47H46.5819C46.9272 10.47 47.2259 10.4047 47.4779 10.274C47.7299 10.134 47.9259 9.94267 48.0659 9.7C48.2059 9.45733 48.2759 9.17733 48.2759 8.86C48.2759 8.53333 48.2059 8.25333 48.0659 8.02C47.9259 7.77733 47.7299 7.59067 47.4779 7.46C47.2259 7.32 46.9272 7.25 46.5819 7.25H44.5799V10.47ZM55.0117 16V5.57H61.9418V7.25H56.9157V9.924H61.6618V11.604H56.9157V14.32H61.9418V16H55.0117ZM66.4179 16V5.57H67.9019L73.6419 13.298L72.8719 13.452V5.57H74.7759V16H73.2779L67.6219 8.216L68.3219 8.062V16H66.4179ZM79.8749 16V5.57H83.2769C84.3782 5.57 85.3349 5.794 86.1469 6.242C86.9682 6.68067 87.6029 7.292 88.0509 8.076C88.4989 8.85067 88.7229 9.75133 88.7229 10.778C88.7229 11.7953 88.4989 12.7007 88.0509 13.494C87.6029 14.278 86.9682 14.894 86.1469 15.342C85.3349 15.7807 84.3782 16 83.2769 16H79.8749ZM81.7789 14.32H83.3189C84.0282 14.32 84.6395 14.1753 85.1529 13.886C85.6755 13.5873 86.0815 13.1767 86.3709 12.654C86.6602 12.122 86.8049 11.4967 86.8049 10.778C86.8049 10.05 86.6602 9.42467 86.3709 8.902C86.0815 8.37933 85.6755 7.97333 85.1529 7.684C84.6395 7.39467 84.0282 7.25 83.3189 7.25H81.7789V14.32ZM93.3182 16V5.57H95.2222V16H93.3182ZM100.308 16V5.57H107.238V7.25H102.212V9.924H106.958V11.604H102.212V14.32H107.238V16H100.308ZM115.438 16.168C114.776 16.168 114.16 16.0467 113.59 15.804C113.03 15.5613 112.545 15.2253 112.134 14.796C111.733 14.3573 111.439 13.8487 111.252 13.27L112.834 12.584C113.086 13.1813 113.45 13.6527 113.926 13.998C114.402 14.334 114.939 14.502 115.536 14.502C115.872 14.502 116.162 14.4507 116.404 14.348C116.656 14.236 116.848 14.0867 116.978 13.9C117.118 13.7133 117.188 13.4893 117.188 13.228C117.188 12.92 117.095 12.668 116.908 12.472C116.731 12.2667 116.46 12.108 116.096 11.996L114.094 11.352C113.282 11.1 112.671 10.722 112.26 10.218C111.85 9.714 111.644 9.12133 111.644 8.44C111.644 7.84267 111.789 7.31533 112.078 6.858C112.377 6.40067 112.788 6.046 113.31 5.794C113.842 5.53267 114.449 5.402 115.13 5.402C115.756 5.402 116.33 5.514 116.852 5.738C117.375 5.95267 117.823 6.256 118.196 6.648C118.579 7.03067 118.864 7.48333 119.05 8.006L117.482 8.706C117.277 8.18333 116.969 7.782 116.558 7.502C116.148 7.21267 115.672 7.068 115.13 7.068C114.813 7.068 114.533 7.124 114.29 7.236C114.048 7.33867 113.856 7.488 113.716 7.684C113.586 7.87067 113.52 8.09467 113.52 8.356C113.52 8.64533 113.614 8.902 113.8 9.126C113.987 9.34067 114.272 9.50867 114.654 9.63L116.572 10.232C117.403 10.5027 118.024 10.876 118.434 11.352C118.854 11.828 119.064 12.416 119.064 13.116C119.064 13.7133 118.91 14.2407 118.602 14.698C118.294 15.1553 117.87 15.5147 117.328 15.776C116.787 16.0373 116.157 16.168 115.438 16.168ZM125.707 16V7.25H123.005V5.57H130.285V7.25H127.625V16H125.707ZM141.943 16V7.25H139.241V5.57H146.521V7.25H143.861V16H141.943ZM149.212 16L152.81 5.57H155.274L158.872 16H156.8L156.058 13.76H152.026L151.27 16H149.212ZM152.572 12.08H155.512L153.776 6.886H154.308L152.572 12.08ZM163.113 16V5.57H165.017V16H163.113ZM170.103 16V5.57H172.007V14.32H176.473V16H170.103ZM181.746 16L178.946 5.57H180.99L183.188 14.46H182.656L184.952 5.57H186.926L189.208 14.46H188.676L190.874 5.57H192.918L190.118 16H187.934L185.624 7.348H186.24L183.93 16H181.746ZM197.153 16V5.57H199.057V16H197.153ZM204.143 16V5.57H205.627L211.367 13.298L210.597 13.452V5.57H212.501V16H211.003L205.347 8.216L206.047 8.062V16H204.143ZM217.6 16V5.57H221.002C222.104 5.57 223.06 5.794 223.872 6.242C224.694 6.68067 225.328 7.292 225.776 8.076C226.224 8.85067 226.448 9.75133 226.448 10.778C226.448 11.7953 226.224 12.7007 225.776 13.494C225.328 14.278 224.694 14.894 223.872 15.342C223.06 15.7807 222.104 16 221.002 16H217.6ZM219.504 14.32H221.044C221.754 14.32 222.365 14.1753 222.878 13.886C223.401 13.5873 223.807 13.1767 224.096 12.654C224.386 12.122 224.53 11.4967 224.53 10.778C224.53 10.05 224.386 9.42467 224.096 8.902C223.807 8.37933 223.401 7.97333 222.878 7.684C222.365 7.39467 221.754 7.25 221.044 7.25H219.504V14.32ZM238.46 16V7.25H235.758V5.57H243.038V7.25H240.378V16H238.46ZM247.28 16V5.57H254.21V7.25H249.184V9.924H253.93V11.604H249.184V14.32H254.21V16H247.28ZM258.686 16V5.57H260.506L264.412 10.876H263.544L267.366 5.57H269.186V16H267.268V7.74L268.01 7.922L264.048 13.2H263.824L259.96 7.922L260.59 7.74V16H258.686ZM274.262 16V5.57H278.154C278.863 5.57 279.489 5.70067 280.03 5.962C280.581 6.214 281.01 6.58733 281.318 7.082C281.626 7.56733 281.78 8.16 281.78 8.86C281.78 9.55067 281.621 10.1433 281.304 10.638C280.996 11.1233 280.571 11.4967 280.03 11.758C279.489 12.0193 278.863 12.15 278.154 12.15H276.166V16H274.262ZM276.166 10.47H278.182C278.527 10.47 278.826 10.4047 279.078 10.274C279.33 10.134 279.526 9.94267 279.666 9.7C279.806 9.45733 279.876 9.17733 279.876 8.86C279.876 8.53333 279.806 8.25333 279.666 8.02C279.526 7.77733 279.33 7.59067 279.078 7.46C278.826 7.32 278.527 7.25 278.182 7.25H276.166V10.47ZM286.42 16V5.57H288.324V14.32H292.79V16H286.42ZM296.248 16L299.846 5.57H302.31L305.908 16H303.836L303.094 13.76H299.062L298.306 16H296.248ZM299.608 12.08H302.548L300.812 6.886H301.344L299.608 12.08ZM311.299 16V7.25H308.597V5.57H315.877V7.25H313.217V16H311.299ZM320.119 16V5.57H327.049V7.25H322.023V9.924H326.769V11.604H322.023V14.32H327.049V16H320.119ZM335.249 16.168C334.587 16.168 333.971 16.0467 333.401 15.804C332.841 15.5613 332.356 15.2253 331.945 14.796C331.544 14.3573 331.25 13.8487 331.063 13.27L332.645 12.584C332.897 13.1813 333.261 13.6527 333.737 13.998C334.213 14.334 334.75 14.502 335.347 14.502C335.683 14.502 335.973 14.4507 336.215 14.348C336.467 14.236 336.659 14.0867 336.789 13.9C336.929 13.7133 336.999 13.4893 336.999 13.228C336.999 12.92 336.906 12.668 336.719 12.472C336.542 12.2667 336.271 12.108 335.907 11.996L333.905 11.352C333.093 11.1 332.482 10.722 332.071 10.218C331.661 9.714 331.455 9.12133 331.455 8.44C331.455 7.84267 331.6 7.31533 331.889 6.858C332.188 6.40067 332.599 6.046 333.121 5.794C333.653 5.53267 334.26 5.402 334.941 5.402C335.567 5.402 336.141 5.514 336.663 5.738C337.186 5.95267 337.634 6.256 338.007 6.648C338.39 7.03067 338.675 7.48333 338.861 8.006L337.293 8.706C337.088 8.18333 336.78 7.782 336.369 7.502C335.959 7.21267 335.483 7.068 334.941 7.068C334.624 7.068 334.344 7.124 334.101 7.236C333.859 7.33867 333.667 7.488 333.527 7.684C333.397 7.87067 333.331 8.09467 333.331 8.356C333.331 8.64533 333.425 8.902 333.611 9.126C333.798 9.34067 334.083 9.50867 334.465 9.63L336.383 10.232C337.214 10.5027 337.835 10.876 338.245 11.352C338.665 11.828 338.875 12.416 338.875 13.116C338.875 13.7133 338.721 14.2407 338.413 14.698C338.105 15.1553 337.681 15.5147 337.139 15.776C336.598 16.0373 335.968 16.168 335.249 16.168Z" fill="#4318FF"/>
<defs>
<clipPath id="clip0_1246_43">
<rect width="20" height="20" fill="white"/>
</clipPath>
</defs>
</svg>
